<svg width="1933" height="2667" viewBox="0 0 1933 2667" fill="none" xmlns="http://www.w3.org/2000/svg">
<path d="M6.22183 294.914L0 251.362L6.22183 209.053L23.6429 167.989L51.019 145.591L89.5943 130.658H134.391L169.234 153.057L196.61 189.143L211.542 232.696L196.61 286.204L177.944 335.979V370.821V420.595V511.434L169.234 597.295L163.012 673.202L144.346 698.089L113.237 717.999H75.9063L51.019 708.044L38.5753 685.645L32.3535 654.536V484.058L17.4211 378.287L6.22183 294.914Z" fill="url(#paint0_linear_706_41)"/>
<path d="M26.0586 288.054L21.1543 252.589L26.0586 218.138L39.7905 184.699L61.3693 166.46L91.7757 154.301H127.086L154.55 172.54L176.129 201.925L187.899 237.39L176.129 280.961L154.55 322.506V342.771L161.416 390.396V464.365L154.55 534.282L150.568 666.979L154.55 684.401L145.591 698.089L114.482 717.998H75.9064L58.4853 699.333L49.7747 679.138L46.6565 580.893V442.073L34.8862 355.944L26.0586 288.054Z" fill="#E3C9B9"/>
<path d="M46.993 312.07L43.5527 280.136L46.993 249.114L56.6259 219.004L71.7632 202.581L93.0931 191.632H117.863L137.129 208.055L152.266 234.515L160.523 266.45L152.266 305.683L137.129 343.092V361.341L141.945 404.224V470.83L137.129 533.787L126.925 604.761L111.993 649.558L98.3048 676.69L82.1281 684.401L70.613 676.69L63.6297 664.223L61.4423 575.758V450.757L53.1856 373.202L46.993 312.07Z" fill="#EFCEBA"/>
<path d="M58.4851 699.333L80.8837 705.555L130.658 708.044L115.726 717.998H82.1281H77.1506L67.1957 708.044L58.4851 699.333Z" fill="#D5BDAC"/>
<path d="M42.3083 693.111L50.4946 674.446L75.0535 658.269L129.629 654.536H165.103L206.034 722.976L248.33 811.326L278.346 878.522L301.136 940.74L311.091 969.361L321.046 1002.96L290.626 1032.82L248.33 1037.8L242.872 1007.94L231.957 978.071L191.026 927.052L137.815 854.879L91.4261 795.149L75.0535 761.552L42.3083 711.777V693.111Z" fill="#7E6B60"/>
<path d="M50.4946 686.849V671.957L77.0897 657.663L121.415 654.536H150.226L183.47 711.866L217.822 785.873L242.2 842.161L261.039 882.813L284.96 944.473L297.403 975.582L306.998 1009.18L290.626 1035.31H261.039L255.152 1001.71L246.965 975.582L204.524 925.549L171.28 882.813L128.063 822.356L90.3872 772.323L77.0897 744.179L50.4946 702.485V686.849Z" fill="#E3C9B9"/>
<path d="M137.815 761.552L140.544 749.108L148.73 740.397L161.009 741.642L171.924 749.108L271.524 917.097V927.052V941.985H256.516L240.143 927.052L226.5 912.12L140.544 773.995L137.815 761.552Z" fill="#EFCEBA"/>
<path d="M255.152 1000.47L246.965 975.582L272.889 1017.89L283.804 1035.31L260.609 1036.56V1035.31L255.152 1000.47Z" fill="#D5BDAC"/>
<path d="M241.407 1017.89V997.981L272.011 988.026L319.802 997.981L334.734 1027.85L355.889 1036.56L375.798 1071.4L364.599 1092.55L375.798 1119.93L350.517 1144.82L289.309 1152.28L272.011 1137.35L256.044 1119.93L245.399 1081.35V1053.98L241.407 1017.89Z" fill="#7E6B60"/>
<path d="M254.713 1021.62L252.606 994.248L271.272 988.026L302.381 991.759L321.046 1035.31L335.979 1040.29L343.864 1049L358.5 1073.89L350.517 1096.29L361.162 1119.93L343.864 1132.37L295.962 1137.35L279.995 1128.64L270.061 1116.2L257.374 1087.58V1061.44L254.713 1021.62Z" fill="#E3C9B9"/>
<path d="M327.268 1061.44L328.512 1070.15L335.979 1076.38L340.956 1082.6L338.467 1096.29L343.445 1101.26L350.517 1096.29V1097.53L360.866 1119.93L343.445 1132.37L296.159 1137.35L323.535 1106.24L327.268 1100.02L328.512 1091.31L324.779 1081.35L327.268 1061.44Z" fill="#CDB6A7"/>
<path fill-rule="evenodd" clip-rule="evenodd" d="M1611.43 2478.87H1722.25L1727.18 2506.24L1743.36 2536.11L1831.71 2589.61L1849.13 2598.32L1903.88 2609.52L1923.79 2612.01L1932.5 2620.72V2629.43L1923.79 2641.88L1916.84 2639.74H1900.43L1871.72 2650.28H1845.31L1821.88 2655.57H1785.21L1749.55 2650.28L1727.14 2636.9L1706.03 2629.43L1678.65 2631.92L1651.27 2639.74H1630.12L1614.06 2634.43L1603.88 2623.87L1597.77 2608.02V2585.57L1606.93 2527.46L1611.43 2478.87Z" fill="#7E6B60"/>
<path fill-rule="evenodd" clip-rule="evenodd" d="M1628.28 2478.87H1704.84L1712.82 2507.27L1730.43 2537.18L1750.82 2553.38L1822.17 2595.84L1839.59 2603.3L1905.54 2618.23H1916.74L1922.96 2623.21L1919.23 2630.68L1915.5 2634.41L1903.05 2630.68H1888.12L1861.99 2640.62H1837.96L1816.64 2645.61H1783.27L1750.82 2640.62L1730.43 2625.67L1705.4 2620.68H1678.52L1648.85 2625.67H1627.53L1618.26 2615.7L1612.7 2600.74V2579.56L1621.04 2524.72L1628.28 2478.87Z" fill="#E3C9B9"/>
<path fill-rule="evenodd" clip-rule="evenodd" d="M1616.6 1927.74L1602.12 1967.62L1585.01 2029.94L1575.8 2078.54L1567.9 2155.82L1575.8 2256.77L1590.28 2330.3L1602.12 2387.63L1611.34 2434.99V2478.61L1611.28 2478.87H1721.99L1721.9 2478.61V2447.76V2380.56L1732.43 2211.33L1746.91 2037.42L1752.07 2001.03L1770.73 1952.5L1800.6 1900.24L1805.57 1865.39L1789.4 1860.42L1728.42 1844.24H1687.68L1627.63 1872.86L1620.16 1897.75L1616.6 1927.74Z" fill="#7E6B60"/>
<path fill-rule="evenodd" clip-rule="evenodd" d="M1632.06 1927.74L1621.87 1967.62L1609.82 2029.94L1603.33 2078.54L1597.77 2155.82L1603.33 2256.77L1613.52 2330.3L1621.87 2387.63L1628.36 2434.99V2478.61L1628.32 2478.87H1705.21L1698.56 2456.47V2376.83L1706.23 2199.44L1723.84 2037.42L1732.18 1998.78L1749.8 1952.67L1784.42 1897.75L1794.38 1860.42L1727.18 1844.24H1716.42H1682.12L1652.52 1860.42L1646.3 1889.04L1632.06 1927.74Z" fill="#E3C9B9"/>
<path d="M1724.69 1906.46L1737.13 1879.08L1752.07 1864.15L1778.2 1856.68V1882.81L1769.49 1911.43L1752.07 1942.54L1727.18 1956.23L1724.69 1935.08V1906.46Z" fill="#EFCEBA"/>
<path d="M1732.16 1958.72L1775.71 1911.44L1749.58 1953.74L1732.16 1999.79L1723.45 2038.36L1713.49 1992.32L1732.16 1958.72Z" fill="#D0B9A9"/>
<path d="M1547.99 1204.63L1569.15 1157.35L1580.34 1115.04C1580.34 1115.04 1631.36 973.091 1765.75 993.001C1900.15 1012.91 1900.15 1157.35 1900.15 1157.35L1893.92 1204.63L1878.99 1266.85V1388.8V1744.6L1867.79 1842.9L1849.13 1855.35H1829.22L1805.57 1866.64L1784.42 1896.5L1749.58 1921.39L1719.71 1931.34H1669.94L1636.34 1913.92L1627.63 1882.81V1866.64H1569.15V1673.67L1547.99 1475.82V1372.62L1538.04 1327.83V1284.27V1253.16L1547.99 1204.63Z" fill="#7E6B60"/>
<path d="M1582.83 1202.15L1590.3 1172.28L1609.35 1121.26L1723.47 1143.66L1831.71 1194.68L1862.82 1227.03L1847.88 1270.59L1844.15 1294.23L1835.6 1407.47L1827.59 1510.75V1601.59L1819.58 1729.76L1813.57 1798.2L1792.55 1866.64L1775.53 1896.5L1747.5 1921.39L1723.47 1931.34H1683.43L1656.4 1913.92L1649.39 1882.81L1656.4 1836.77L1649.39 1754.64L1639.38 1689.94L1636.38 1543.1L1622.36 1432.35L1609.35 1392.53L1593.33 1355.2L1575.37 1331.56L1569.15 1289.25L1575.37 1243.21L1582.83 1202.15Z" fill="#E3C9B9"/>
<path d="M1582.83 1202.15L1589.05 1173.53L1608.96 1121.26L1727.18 1143.66L1718.47 1238.23L1683.43 1316.63L1666.41 1378.85L1656.4 1452.26V1526.92V1668.78L1666.41 1770.82L1676.16 1831.79L1683.43 1882.81V1913.92V1931.34L1656.4 1913.92L1649.39 1882.81L1656.4 1836.77L1649.39 1754.64L1639.38 1689.94L1636.38 1543.1L1622.36 1432.35L1609.35 1392.53L1596.52 1368.89L1575.37 1331.56L1569.15 1289.25L1575.37 1243.21L1582.83 1202.15Z" fill="#D0B9A9"/>
<path d="M1683.63 1473.42L1699.8 1382.58L1720.96 1331.56L1738.38 1321.6L1760.78 1331.56L1780.69 1358.94L1796.86 1423.64L1801.84 1513.24L1811.8 1665.05L1801.84 1719.8L1790.64 1762.11L1780.69 1779.53H1760.78L1738.38 1762.11L1699.8 1683.71L1683.63 1586.65V1473.42Z" fill="#EFCEBA"/>
<path d="M1608.96 1118.77C1608.96 1118.77 1638.83 1007.94 1757.04 1025.36C1875.26 1042.78 1878.99 1157.35 1878.99 1157.35L1874.01 1194.68L1862.82 1225.79L1851.62 1268.1V1402.49V1552.97V1773.22L1841.66 1835.44H1811.8L1769.49 1845.39H1702.29H1631.36H1587.81V1668.69L1574.12 1427.38V1367.65V1332.8L1567.9 1291.74V1243.21L1587.81 1174.77L1608.96 1118.77Z" fill="url(#paint1_linear_706_41)"/>
<path d="M1607.72 1117.53L1878.99 1157.35L1875.26 1184.72L1599.01 1142.15L1607.72 1117.53Z" fill="#FFF3ED"/>
<rect x="1616.5" y="1120.04" width="7.46619" height="22.3986" transform="rotate(14.6042 1616.5 1120.04)" fill="#EBD8CC"/>
<rect x="1630.79" y="1122.51" width="7.46619" height="22.3986" transform="rotate(14.6042 1630.79 1122.51)" fill="#EBD8CC"/>
<rect x="1645.87" y="1125" width="7.46619" height="22.3986" transform="rotate(15 1645.87 1125)" fill="#EBD8CC"/>
<rect x="1660.8" y="1127.48" width="7.46619" height="22.3986" transform="rotate(15 1660.8 1127.48)" fill="#EBD8CC"/>
<rect x="1675.59" y="1129.97" width="7.46619" height="22.3986" transform="rotate(14.6042 1675.59 1129.97)" fill="#EBD8CC"/>
<rect x="1689.87" y="1132.43" width="7.46619" height="22.3986" transform="rotate(14.6042 1689.87 1132.43)" fill="#EBD8CC"/>
<rect x="1735.32" y="1137.44" width="7.46619" height="22.3986" transform="rotate(14.6042 1735.32 1137.44)" fill="#EBD8CC"/>
<rect x="1749.6" y="1139.9" width="7.46619" height="22.3986" transform="rotate(14.6042 1749.6 1139.9)" fill="#EBD8CC"/>
<rect x="1765.18" y="1142.42" width="7.46619" height="22.3986" transform="rotate(14.6042 1765.18 1142.42)" fill="#EBD8CC"/>
<rect x="1779.46" y="1144.88" width="7.46619" height="22.3986" transform="rotate(14.6042 1779.46 1144.88)" fill="#EBD8CC"/>
<rect x="1795.05" y="1147.39" width="7.46619" height="22.3986" transform="rotate(14.6042 1795.05 1147.39)" fill="#EBD8CC"/>
<rect x="1809.33" y="1149.86" width="7.46619" height="22.3986" transform="rotate(14.6042 1809.33 1149.86)" fill="#EBD8CC"/>
<rect x="1824.91" y="1152.37" width="7.46619" height="22.3986" transform="rotate(14.6042 1824.91 1152.37)" fill="#EBD8CC"/>
<rect x="1839.19" y="1154.83" width="7.46619" height="22.3986" transform="rotate(14.6042 1839.19 1154.83)" fill="#EBD8CC"/>
<rect x="1854.77" y="1157.35" width="7.46619" height="22.3986" transform="rotate(14.6042 1854.77 1157.35)" fill="#EBD8CC"/>
<rect x="1869.06" y="1159.81" width="7.46619" height="22.3986" transform="rotate(14.6042 1869.06 1159.81)" fill="#EBD8CC"/>
<rect x="1704.95" y="1134.92" width="7.46619" height="22.3986" transform="rotate(15 1704.95 1134.92)" fill="#EBD8CC"/>
<rect x="1719.88" y="1137.41" width="7.46619" height="22.3986" transform="rotate(15 1719.88 1137.41)" fill="#EBD8CC"/>
<path d="M1016.65 558.721L1037.8 510.19L1063.93 441.75L1071.4 424.329L1244.37 441.75L1253.08 461.66L1279.21 494.014L1311.56 528.856L1345.16 568.676L1372.54 614.717L1389.96 660.759L1398.67 698.09L1389.96 765.285L1372.54 832.481V922.075L1380 971.85L1389.96 1026.6V1083.84L1380 1132.37L1372.54 1178.41L1341.43 1275.48L1276.72 1284.19L1207.03 1259.3L1129.88 1215.75L1066.42 1152.28L1060.2 1126.15L1071.4 1105L1105 1052.73L1107.49 1017.89L1105 980.561L1092.55 922.075L1071.4 853.635L1037.8 765.285L1016.65 709.289L1005.45 660.759V614.717L1016.65 558.721Z" fill="#7E6B60"/>
<path d="M1038.87 558.017L1057.35 509.265L1076.38 442.994L1236.9 459.171L1263.03 496.502L1294.14 530.1L1325.8 568.018L1349.71 614.27L1364.93 660.523L1372.54 698.025L1364.93 765.528L1349.71 833.032V923.036L1356.23 973.039L1364.93 1028.04V1085.54L1356.23 1134.3L1349.71 1180.55L1325.8 1258.05H1268.2L1212.77 1233.05L1143.21 1195.55L1089.95 1141.8L1086.69 1106.8L1116.04 1061.79L1121.17 1028.04L1118.68 983.049L1105.17 923.036L1086.69 854.283L1057.35 765.528L1038.87 709.275L1029.09 660.523V614.27L1038.87 558.017Z" fill="#E3C9B9"/>
<path d="M1328.98 943.229L1337.69 951.94L1347.65 1005.45L1353.87 1080.11L1328.98 1173.44H1321.52L1315.29 1158.5V1097.53V1034.07V981.805L1321.52 951.94L1328.98 943.229Z" fill="#EFCEBA"/>
<path d="M1086.33 852.391L1039.05 710.533L1027.85 662.003V614.717L1032.82 589.83L1039.05 556.232L1058.96 503.969L1068.91 466.638L1087.58 450.461L1057.71 619.695L1075.13 681.913L1131.13 741.642L1194.59 783.951L1264.28 801.372L1348.89 828.748L1306.58 837.459H1277.96L1264.28 852.391L1235.66 898.433L1223.21 945.718L1212.01 1045.27L1194.59 1223.21L1142.33 1197.08L1090.06 1142.33L1086.33 1106.24L1114.95 1062.69L1118.68 1027.85V981.805L1086.33 852.391Z" fill="url(#paint2_linear_706_41)"/>
<path d="M1093.8 352.607V316.309L1076.38 270.937L1057.71 225.565L1046.51 193.156L1040.29 156.858V116.671L1057.71 71.2992L1076.38 46.6686L1103.75 23.3343L1134.86 6.48175L1175.93 0L1229.43 3.88905L1280.45 19.4452L1317.78 40.1868L1348.89 71.2992L1352.63 88.1518L1348.89 99.8189V125.746L1356.36 149.08L1358.85 167.229L1352.63 184.082V195.749L1381.25 239.825L1377.51 254.085L1365.07 264.455L1348.89 265.752L1352.63 277.419L1345.16 286.493L1348.89 295.568L1345.16 302.049L1338.94 305.939L1340.18 313.717L1345.16 329.273L1347.65 340.94L1345.16 351.311L1336.45 359.089L1321.52 362.978L1300.36 360.385L1284.19 364.599L1280.45 393.22L1270.5 403.174L1260.54 415.618L1254.32 434.284L1258.05 470.575L1245.61 473.168L1065.18 486.547L1050.24 481.57L1065.18 440.759L1083.84 397.979L1093.8 352.607Z" fill="url(#paint3_linear_706_41)"/>
<path d="M1112.46 334.51L1109.97 307.287L1094.36 259.54L1077.98 219.776L1068.15 191.373L1062.69 159.561V124.341L1077.98 84.5768L1094.36 62.9904L1118.39 42.5401L1145.69 27.7705L1181.74 22.0898L1228.7 25.4982L1273.48 39.1317L1306.24 57.3098L1333.55 84.5768L1336.82 99.3465L1333.55 109.572V132.294L1340.1 152.744L1342.29 168.65L1336.82 183.42V193.645L1366.31 237.954L1364.13 248.179L1352.12 253.86H1336.82L1340.1 273.174L1333.55 279.991L1336.82 287.943L1335.2 294.323L1328.98 295.62L1327.74 312.472L1333.55 326.732V333.214L1330.23 339.696L1325.25 343.585L1317.78 347.474L1302.97 344.75L1271.74 353.4L1266.76 389.486L1248.1 411.885L1244.37 431.795L1241.88 444.238V454.193L1248.1 473.22L1172.19 483.59L1102.51 495.257L1065.18 486.183L1076.38 443.403L1103.75 375.993L1112.46 334.51Z" fill="#E3C9B9"/>
<path d="M1322.76 277.472L1340.18 273.583L1333.96 283.954L1311.56 287.843L1322.76 277.472Z" fill="#B9968F"/>
<path d="M1311.56 287.841L1335.2 282.655L1337.69 287.841L1335.2 294.322L1328.98 295.619L1311.56 287.841Z" fill="#D2A79E"/>
<path d="M1285.43 186.727L1314.05 176.356L1333.96 171.171V185.032L1330.23 198.394L1292.9 195.802L1285.43 186.727Z" fill="#C9B0A1"/>
<path d="M1269.25 163.391L1290.41 156.909L1310.32 159.502L1331.47 163.391V168.576L1297.87 165.984L1275.48 168.576L1269.25 163.391Z" fill="url(#paint4_linear_706_41)"/>
<path d="M1295.38 188.022L1315.29 180.244L1328.98 176.354V185.429L1326.49 193.207L1299.12 191.911L1295.38 188.022Z" fill="#D9D9D9"/>
<path d="M1314.05 189.318V184.133L1315.29 180.244L1328.98 176.354V186.725L1326.49 193.207H1319.03L1314.05 189.318Z" fill="#939887"/>
<path d="M1103.75 377.289L1112.46 331.917L1128.64 305.99L1149.79 278.767L1153.53 293.026V331.917L1143.57 360.437L1137.35 382.475L1134.86 399.327L1141.08 417.476L1147.31 433.032L1174.68 457.663L1169.7 461.552L1141.08 444.699L1119.93 438.218L1100.02 440.81L1081.35 491.524L1065.18 485.302L1077.62 440.81L1103.75 377.289Z" fill="#C4AEA0"/>
<path d="M1212.01 89.5001L1254.32 75.2402L1249.34 89.5001V156.91L1248.1 175.059L1224.46 217.839L1218.23 207.468L1224.46 173.763L1212.01 89.5001Z" fill="#D1B8A7"/>
<path d="M1117.44 42.8299L1146.06 27.2737L1182.15 20.792L1229.43 24.681L1275.47 38.9409L1309.07 58.3861L1331.47 76.535L1337.69 85.6095V99.8693L1263.03 79.1277H1251.83L1243.12 84.3131L1231.92 97.2766L1229.43 129.685L1231.92 164.687L1224.46 180.243L1219.48 199.688L1214.5 224.319V242.468V251.542H1202.06H1198.32L1195.84 245.06L1190.86 230.801L1185.88 217.837L1178.41 197.096L1168.46 184.132L1158.5 180.243L1148.55 184.132L1141.08 190.614L1138.59 204.874L1146.06 228.208L1154.77 247.653V260.617L1151.04 277.469L1143.57 290.433L1129.88 305.989L1112.46 331.916L1109.97 308.582L1093.8 260.617L1067.67 197.096L1062.69 160.798V124.5L1077.62 84.3131L1093.8 63.5715L1117.44 42.8299Z" fill="#462C2C"/>
<path d="M1154.77 260.617V246.357L1177.17 265.803L1192.1 307.286L1202.06 321.546L1229.43 337.102L1272.99 353.954L1269.25 373.309L1246.85 364.599L1219.48 353.954L1195.84 337.102L1152.28 274.877L1154.77 260.617Z" fill="#D1B8A7"/>
<path d="M1152.28 274.878L1195.84 337.103L1226.94 358.377L1212.01 369.576L1205.79 400.685L1212.01 426.817L1231.92 465.392L1203.3 458.96L1184.64 416.18L1179.66 373.401V350.066L1159.75 298.212L1152.28 291.73L1149.79 278.767L1152.28 274.878Z" fill="#DAC1B0"/>
<path d="M1156.02 423.957L1138.59 409.697L1134.86 399.326V390.252L1177.17 433.031L1203.3 452.477H1218.23L1220.72 458.958H1203.3L1192.1 452.477L1174.68 439.513L1156.02 423.957Z" fill="#D7BCAB"/>
<path fill-rule="evenodd" clip-rule="evenodd" d="M1095.04 2489.98H1204.14L1208.99 2517.35L1224.91 2547.22L1311.89 2600.72L1329.04 2609.43L1382.94 2620.63L1402.54 2623.12L1411.11 2631.83V2640.54L1402.54 2652.99L1395.7 2650.85H1379.54L1351.27 2661.39H1325.28L1302.22 2666.68H1266.11L1231.01 2661.39L1208.95 2648.01L1188.16 2640.54L1161.21 2643.03L1134.26 2650.85H1113.44L1097.64 2645.54L1087.61 2634.98L1081.59 2619.13V2596.68L1090.62 2538.57L1095.04 2489.98Z" fill="#7E6B60"/>
<path fill-rule="evenodd" clip-rule="evenodd" d="M1111.63 2489.98H1187L1194.85 2518.38L1212.19 2548.29L1232.26 2564.49L1302.5 2606.95L1319.65 2614.41L1384.57 2629.34H1395.6L1401.72 2634.32L1398.05 2641.79L1394.37 2645.52L1382.12 2641.79H1367.42L1341.7 2651.74H1318.04L1297.06 2656.72H1264.2L1232.26 2651.74L1212.19 2636.78L1187.55 2631.79H1161.08L1131.88 2636.78H1110.89L1101.77 2626.81L1096.29 2611.85V2590.67L1104.5 2535.83L1111.63 2489.98Z" fill="#E3C9B9"/>
<path fill-rule="evenodd" clip-rule="evenodd" d="M1100.13 1938.85L1085.88 1978.73L1069.03 2041.05L1059.96 2089.66L1052.19 2166.93L1059.96 2267.88L1074.22 2341.41L1085.88 2398.74L1094.95 2446.1V2489.72L1094.9 2489.98H1203.88L1203.79 2489.72V2458.87V2391.67L1214.15 2222.44L1228.41 2048.53L1233.49 2012.14L1251.86 1963.61L1281.26 1911.35L1286.16 1876.5L1270.24 1871.53L1210.21 1855.35H1170.1L1110.99 1883.97L1103.64 1908.86L1100.13 1938.85Z" fill="#7E6B60"/>
<path fill-rule="evenodd" clip-rule="evenodd" d="M1115.36 1938.85L1105.32 1978.73L1093.45 2041.05L1087.07 2089.66L1081.59 2166.93L1087.07 2267.88L1097.1 2341.41L1105.32 2398.74L1111.71 2446.1V2489.72L1111.67 2489.98H1187.36L1180.81 2467.58V2387.94L1188.36 2210.55L1205.7 2048.53L1213.91 2009.89L1231.25 1963.78L1265.34 1908.86L1275.14 1871.53L1208.99 1855.35H1198.4H1164.63L1135.49 1871.53L1129.36 1900.15L1115.36 1938.85Z" fill="#E3C9B9"/>
<path d="M1206.54 1917.57L1218.79 1890.19L1233.49 1875.26L1259.21 1867.79V1893.92L1250.64 1922.55L1233.49 1953.65L1208.99 1967.34L1206.54 1946.19V1917.57Z" fill="#EFCEBA"/>
<path d="M1213.89 1969.83L1256.76 1922.55L1231.04 1964.85L1213.89 2010.9L1205.31 2049.47L1195.51 2003.43L1213.89 1969.83Z" fill="#D0B9A9"/>
<path d="M1027.69 1214.59L1048.52 1167.3L1059.54 1125H1080.37L1088.94 1129.97L1353.54 1167.3H1374.36L1368.24 1214.59L1353.54 1276.81V1398.76V1754.56L1342.51 1852.86L1324.14 1865.3H1304.54L1281.26 1876.59L1260.44 1906.46L1226.14 1931.34L1196.74 1941.3H1147.74L1114.66 1923.88L1106.09 1892.77V1876.59H1048.52V1683.63L1027.69 1485.77V1382.58L1017.89 1337.78V1294.23V1263.12L1027.69 1214.59Z" fill="#7E6B60"/>
<path d="M1061.99 1212.1L1069.34 1182.24L1088.09 1131.22L1200.44 1153.62L1306.99 1204.64L1337.61 1236.99L1322.91 1280.54L1319.24 1304.18L1310.82 1417.42L1302.93 1520.7V1611.54L1295.05 1739.71L1289.14 1808.15L1268.44 1876.59L1251.69 1906.46L1224.09 1931.34L1200.44 1941.3H1161.02L1134.41 1923.88L1127.51 1892.77L1134.41 1846.73L1127.51 1764.6L1117.66 1699.89L1114.7 1553.06L1100.9 1442.31L1088.09 1402.49L1072.32 1365.16L1054.64 1341.52L1048.52 1299.21L1054.64 1253.17L1061.99 1212.1Z" fill="#E3C9B9"/>
<path d="M1061.99 1212.1L1068.12 1183.48L1087.72 1131.22L1204.09 1153.62L1195.51 1248.19L1161.02 1326.58L1144.27 1388.8L1134.41 1462.22V1536.88V1678.74L1144.27 1780.78L1153.86 1841.75L1161.02 1892.77V1923.88V1941.3L1134.41 1923.88L1127.51 1892.77L1134.41 1846.73L1127.51 1764.6L1117.66 1699.89L1114.7 1553.06L1100.9 1442.31L1088.09 1402.49L1075.47 1378.85L1054.64 1341.52L1048.52 1299.21L1054.64 1253.17L1061.99 1212.1Z" fill="#D0B9A9"/>
<path d="M1161.21 1483.37L1177.14 1392.53L1197.96 1341.52L1215.11 1331.56L1237.16 1341.52L1256.76 1368.89L1272.69 1433.6L1277.59 1523.19L1287.39 1675.01L1277.59 1729.76L1266.56 1772.07L1256.76 1789.49H1237.16L1215.11 1772.07L1177.14 1693.67L1161.21 1596.61V1483.37Z" fill="#EFCEBA"/>
<path d="M1087.72 1128.73L1353.54 1167.3L1348.64 1204.64L1337.61 1235.74L1326.59 1278.05V1412.44V1562.92V1783.18L1316.79 1845.39H1287.39L1245.74 1855.35H1179.59H1109.76H1066.89V1678.65L1053.42 1437.33V1377.6V1342.76L1047.29 1301.7V1253.17L1066.89 1184.73L1087.72 1128.73Z" fill="url(#paint5_linear_706_41)"/>
<path d="M1086.49 1127.49L1353.54 1167.3L1349.86 1194.68L1077.92 1152.1L1086.49 1127.49Z" fill="#FFF3ED"/>
<path d="M1147.74 1286.76L1205.31 1281.79L1232.26 1270.59L1250.64 1255.65L1262.89 1240.72L1276.36 1219.57L1283.71 1197.17L1284.94 1183.39L1310.66 1188.37L1305.76 1199.66L1295.96 1222.06L1284.94 1245.7L1267.79 1263.12L1244.51 1284.28L1212.66 1300.45L1142.84 1302.94L1147.74 1286.76Z" fill="url(#paint6_linear_706_41)"/>
<rect width="7.35734" height="22.3766" transform="matrix(0.966711 0.25587 -0.248457 0.968643 1095.14 1130)" fill="#EBD8CC"/>
<rect width="7.35734" height="22.3766" transform="matrix(0.966711 0.25587 -0.248457 0.968643 1109.2 1132.46)" fill="#EBD8CC"/>
<rect width="7.35774" height="22.3754" transform="matrix(0.964895 0.262634 -0.255052 0.966927 1124.05 1134.95)" fill="#EBD8CC"/>
<rect width="7.35774" height="22.3754" transform="matrix(0.964895 0.262634 -0.255052 0.966927 1138.75 1137.44)" fill="#EBD8CC"/>
<rect width="7.35734" height="22.3766" transform="matrix(0.966711 0.25587 -0.248457 0.968643 1153.3 1139.93)" fill="#EBD8CC"/>
<rect width="7.35734" height="22.3766" transform="matrix(0.966711 0.25587 -0.248457 0.968643 1167.36 1142.39)" fill="#EBD8CC"/>
<rect width="7.35734" height="22.3766" transform="matrix(0.966711 0.25587 -0.248457 0.968643 1212.1 1147.39)" fill="#EBD8CC"/>
<rect width="7.35734" height="22.3766" transform="matrix(0.966711 0.25587 -0.248457 0.968643 1226.16 1149.86)" fill="#EBD8CC"/>
<rect width="7.35734" height="22.3766" transform="matrix(0.966711 0.25587 -0.248457 0.968643 1241.5 1152.37)" fill="#EBD8CC"/>
<rect width="7.35734" height="22.3766" transform="matrix(0.966711 0.25587 -0.248457 0.968643 1255.56 1154.83)" fill="#EBD8CC"/>
<rect width="7.35734" height="22.3766" transform="matrix(0.966711 0.25587 -0.248457 0.968643 1270.9 1157.35)" fill="#EBD8CC"/>
<rect width="7.35734" height="22.3766" transform="matrix(0.966711 0.25587 -0.248457 0.968643 1284.96 1159.81)" fill="#EBD8CC"/>
<rect width="7.35734" height="22.3766" transform="matrix(0.966711 0.25587 -0.248457 0.968643 1300.3 1162.33)" fill="#EBD8CC"/>
<rect width="7.35734" height="22.3766" transform="matrix(0.966711 0.25587 -0.248457 0.968643 1314.36 1164.79)" fill="#EBD8CC"/>
<rect width="7.35734" height="22.3766" transform="matrix(0.966711 0.25587 -0.248457 0.968643 1329.7 1167.3)" fill="#EBD8CC"/>
<rect width="7.35734" height="22.3766" transform="matrix(0.966711 0.25587 -0.248457 0.968643 1343.76 1169.77)" fill="#EBD8CC"/>
<rect width="7.35774" height="22.3754" transform="matrix(0.964895 0.262634 -0.255052 0.966927 1182.21 1144.88)" fill="#EBD8CC"/>
<rect width="7.35774" height="22.3754" transform="matrix(0.964895 0.262634 -0.255052 0.966927 1196.91 1147.37)" fill="#EBD8CC"/>
<path d="M508.945 294.914L502.724 251.362L508.945 209.053L526.367 167.989L553.743 145.591L592.318 130.658H637.115L671.957 153.057L699.333 189.143L714.266 232.696L699.333 286.204L680.668 335.979V370.821V420.595V511.434L671.957 597.295L665.736 673.202L647.07 698.089L615.961 717.999H578.63L553.743 708.044L541.299 685.645L535.077 654.536V484.058L520.145 378.287L508.945 294.914Z" fill="url(#paint7_linear_706_41)"/>
<path d="M528.782 288.054L523.878 252.589L528.782 218.138L542.514 184.699L564.093 166.46L594.499 154.301H629.81L657.274 172.54L678.853 201.925L690.623 237.39L678.853 280.961L657.274 322.506V342.771L664.14 390.396V464.365L657.274 534.282L653.292 666.979L657.274 684.401L648.314 698.089L617.205 717.998H578.63L561.209 699.333L552.498 679.138L549.38 580.893V442.073L537.61 355.944L528.782 288.054Z" fill="#E3C9B9"/>
<path d="M549.717 312.07L546.276 280.136L549.717 249.114L559.35 219.004L574.487 202.581L595.817 191.632H620.587L639.853 208.055L654.99 234.515L663.247 266.45L654.99 305.683L639.853 343.092V361.341L644.669 404.224V470.83L639.853 533.787L629.649 604.761L614.716 649.558L601.028 676.69L584.852 684.401L573.337 676.69L566.353 664.223L564.166 575.758V450.757L555.909 373.202L549.717 312.07Z" fill="#EFCEBA"/>
<path d="M561.209 699.333L583.607 705.555L633.382 708.044L618.45 717.998H584.852H579.874L569.919 708.044L561.209 699.333Z" fill="#D5BDAC"/>
<path d="M545.032 693.111L553.218 674.446L577.777 658.269L632.352 654.536H667.826L708.758 722.976L751.053 811.326L781.07 878.522L803.86 940.74L813.815 969.361L823.77 1002.96L793.349 1032.82L751.053 1037.8L745.596 1007.94L734.681 978.071L693.749 927.052L640.539 854.879L594.15 795.149L577.777 761.552L545.032 711.777V693.111Z" fill="#7E6B60"/>
<path d="M553.218 686.849V671.957L579.813 657.663L624.138 654.536H652.95L686.193 711.866L720.545 785.873L744.924 842.161L763.762 882.813L787.683 944.473L800.127 975.582L809.722 1009.18L793.349 1035.31H763.762L757.875 1001.71L749.689 975.582L707.248 925.549L674.004 882.813L630.787 822.356L593.111 772.323L579.813 744.179L553.218 702.485V686.849Z" fill="#E3C9B9"/>
<path d="M640.539 761.552L643.267 749.108L651.454 740.397L663.733 741.642L674.648 749.108L774.248 917.097V927.052V941.985H759.24L742.867 927.052L729.223 912.12L643.267 773.995L640.539 761.552Z" fill="#EFCEBA"/>
<path d="M757.875 1000.47L749.689 975.582L775.612 1017.89L786.527 1035.31L763.333 1036.56V1035.31L757.875 1000.47Z" fill="#D5BDAC"/>
<path d="M744.131 1017.89V997.981L774.735 988.026L822.526 997.981L837.458 1027.85L858.612 1036.56L878.522 1071.4L867.323 1092.55L878.522 1119.93L853.241 1144.82L792.033 1152.28L774.735 1137.35L758.767 1119.93L748.122 1081.35V1053.98L744.131 1017.89Z" fill="#7E6B60"/>
<path d="M757.437 1021.62L755.33 994.248L773.996 988.026L805.105 991.759L823.77 1035.31L838.703 1040.29L846.588 1049L861.224 1073.89L853.241 1096.29L863.886 1119.93L846.588 1132.37L798.686 1137.35L782.718 1128.64L772.785 1116.2L760.098 1087.58V1061.44L757.437 1021.62Z" fill="#E3C9B9"/>
<path d="M830.62 1060.2L853.24 1080.11V1097.53L835.943 1082.6L830.62 1060.2Z" fill="#CDB6A7"/>
<defs>
<linearGradient id="paint0_linear_706_41" x1="105.771" y1="130.658" x2="111.993" y2="419.351" gradientUnits="userSpaceOnUse">
<stop stop-color="#CDB6A7"/>
<stop offset="0.959263" stop-color="#837065"/>
<stop offset="1" stop-color="#7E6B60"/>
</linearGradient>
<linearGradient id="paint1_linear_706_41" x1="1723.45" y1="1118.76" x2="1724.69" y2="1645.04" gradientUnits="userSpaceOnUse">
<stop stop-color="#DFD2CA"/>
<stop offset="1" stop-color="#FFF4ED"/>
</linearGradient>
<linearGradient id="paint2_linear_706_41" x1="1231.92" y1="837.459" x2="1065.18" y2="872.301" gradientUnits="userSpaceOnUse">
<stop stop-color="#DAC1B0"/>
<stop offset="1" stop-color="#C3AEA0"/>
</linearGradient>
<linearGradient id="paint3_linear_706_41" x1="1067.67" y1="194.504" x2="1213.46" y2="393.713" gradientUnits="userSpaceOnUse">
<stop stop-color="#100808"/>
<stop offset="0.757471" stop-color="#7E6B60"/>
</linearGradient>
<linearGradient id="paint4_linear_706_41" x1="1300.36" y1="156.909" x2="1300.36" y2="168.576" gradientUnits="userSpaceOnUse">
<stop stop-color="#7E6868"/>
<stop offset="1" stop-color="#B79898"/>
</linearGradient>
<linearGradient id="paint5_linear_706_41" x1="1200.41" y1="1128.73" x2="1201.68" y2="1655.01" gradientUnits="userSpaceOnUse">
<stop stop-color="#DFD2CA"/>
<stop offset="1" stop-color="#FFF4ED"/>
</linearGradient>
<linearGradient id="paint6_linear_706_41" x1="1251.86" y1="1210.77" x2="1226.01" y2="1302.73" gradientUnits="userSpaceOnUse">
<stop stop-color="#D1C4BC"/>
<stop offset="1" stop-color="#D1C4BC" stop-opacity="0.27"/>
</linearGradient>
<linearGradient id="paint7_linear_706_41" x1="608.495" y1="130.658" x2="614.717" y2="419.351" gradientUnits="userSpaceOnUse">
<stop stop-color="#CDB6A7"/>
<stop offset="0.959263" stop-color="#837065"/>
<stop offset="1" stop-color="#7E6B60"/>
</linearGradient>
</defs>
</svg>
